<svg width="54" height="65" viewBox="0 0 54 65" fill="none" xmlns="http://www.w3.org/2000/svg">
<path fill-rule="evenodd" clip-rule="evenodd" d="M39 22.8037V38.6909C39 42.3245 38.854 45.9206 36.1171 48.6575C33.8211 50.982 30.2083 51.8037 27 51.8037C23.7917 51.8037 20.182 50.982 17.8829 48.6575C15.146 45.9206 15 42.3245 15 38.6909V22.8037H22.1495V37.6786C22.1495 41.3528 22.405 45.3613 27 45.3613C31.595 45.3613 31.8505 41.3528 31.8505 37.6786V22.8037H39Z" fill="#231F20"/>
<path fill-rule="evenodd" clip-rule="evenodd" d="M22 16.8037C22 19.0452 20.2124 20.8037 18.022 20.8037C15.7876 20.8037 14 19.0452 14 16.8037C14 14.603 15.7876 12.8037 18.022 12.8037C20.2124 12.8037 22 14.603 22 16.8037Z" fill="#231F20"/>
<path fill-rule="evenodd" clip-rule="evenodd" d="M40 16.8037C40 19.0452 38.2124 20.8037 36.022 20.8037C33.7876 20.8037 32 19.0452 32 16.8037C32 14.603 33.7876 12.8037 36.022 12.8037C38.2124 12.8037 40 14.603 40 16.8037Z" fill="#231F20"/>
<mask id="mask0" mask-type="alpha" maskUnits="userSpaceOnUse" x="0" y="0" width="54" height="65">
<path fill-rule="evenodd" clip-rule="evenodd" d="M0 64.8037H54V0.803711H0V64.8037Z" fill="white"/>
</mask>
<g mask="url(#mask0)">
<path fill-rule="evenodd" clip-rule="evenodd" d="M7.3223 57.4013H46.6746V8.20297H7.3223V57.4013ZM46.6746 0.803711H7.32541H0V8.20297V57.4013V64.8037H7.32541H46.6746H54V57.4013V8.20297V0.803711H46.6746Z" fill="#231F20"/>
</g>
</svg>
